# Blender 4.4.3
# www.blender.org
mtllib row1.mtl
o stand
v 15.651844 -1.000000 1.000000
v 13.218598 4.557795 1.000000
v 15.651844 -1.000000 -1.000000
v 13.218598 4.557795 -1.000000
v 17.651844 -1.000000 1.000000
v 17.651844 -0.049519 1.000000
v 17.651844 -1.000000 -1.000000
v 17.651844 -0.049519 -1.000000
v 12.341240 -1.000000 21.574968
v 12.341240 -1.000000 -21.574968
v 13.218598 4.557795 1.000000
v 12.941196 -1.000000 21.574968
v 12.941196 -1.000000 -21.574968
v 13.218598 4.557795 -1.000000
v 12.859903 5.813171 20.464983
v 12.750330 5.703598 20.464983
v 12.750330 5.703598 -20.464983
v 12.859903 5.813171 -20.464983
v 13.319420 5.703598 20.464983
v 13.209846 5.813171 20.464983
v 13.209846 5.813171 -20.464983
v 13.319420 5.703598 -20.464983
v 13.252769 4.522283 1.000000
v 13.250643 4.484602 1.000000
v 13.250643 4.484602 -1.000000
v 13.252769 4.522283 -1.000000
vn -0.9161 -0.4011 -0.0000
vn -0.0000 -0.0000 -1.0000
vn 1.0000 -0.0000 -0.0000
vn -0.0000 -0.0000 1.0000
vn -0.0000 -1.0000 -0.0000
vn 0.7206 0.6934 -0.0000
vn -0.0000 1.0000 -0.0000
vn 0.9984 -0.0563 -0.0000
vn -0.9981 0.0609 -0.0000
vn -0.0000 0.1613 -0.9869
vn -0.7071 0.7071 -0.0000
vn 0.7071 0.7071 -0.0000
vn -0.0000 0.1613 0.9869
vn 0.9161 0.4011 -0.0000
vn -0.7206 -0.6934 -0.0000
vt 0.172192 0.000000
vt 0.344385 0.000000
vt 0.344385 0.172192
vt 0.172192 0.172192
vt 0.812109 0.033348
vt 0.884156 0.033348
vt 0.884156 0.105395
vt 0.812109 0.105395
vt 0.884156 0.177442
vt 0.812109 0.177442
vt 0.884156 0.249489
vt 0.812109 0.249489
vt 0.740061 0.105395
vt 0.740061 0.177442
vt 0.956203 0.105395
vt 0.956203 0.177442
vt 0.894116 0.344385
vt 1.000000 0.344385
vt 1.000000 0.516577
vt 0.894116 0.516577
vt 0.828337 0.434655
vt 0.858192 0.516577
vt 0.688769 0.516577
vt 0.688769 0.344385
vt 0.858192 0.344385
vt 0.828337 0.426307
vt 0.827384 0.426308
vt 0.827384 0.434653
vt 0.807212 0.709927
vt 0.787421 0.894514
vt 0.082361 0.887992
vt 0.063911 0.703052
vt 0.516577 0.344385
vt 0.516577 0.516577
vt 0.860962 0.311231
vt 0.688769 0.172192
vt 0.858192 0.172192
vt 0.860962 0.205346
vt 0.860962 0.000000
vt 0.860962 0.172192
vt 0.858192 0.000000
vt 0.860962 0.549731
vt 0.860962 0.655615
vt 0.858192 0.688769
vt 0.688769 0.688769
vt 0.025735 0.346680
vt 0.045568 0.430684
vt 0.058287 0.842427
vt 0.025735 0.919954
vt 0.064127 0.392430
vt 0.069891 0.880974
s 0
usemtl wood2
f 1/1/1 2/2/1 4/3/1 3/4/1
f 3/5/2 4/6/2 8/7/2 7/8/2
f 7/8/3 8/7/3 6/9/3 5/10/3
f 5/10/4 6/9/4 2/11/4 1/12/4
f 3/13/5 7/8/5 5/10/5 1/14/5
f 8/7/6 4/15/6 2/16/6 6/9/6
f 21/17/7 18/18/7 15/19/7 20/20/7
f 23/21/8 19/22/8 12/23/8 13/24/8 22/25/8 26/26/8 25/27/8 24/28/8
f 26/26/8 22/25/8 19/22/8 23/21/8
f 9/29/9 16/30/9 17/31/9 10/32/9
f 10/33/5 13/24/5 12/23/5 9/34/5
f 21/35/10 22/25/10 13/24/10 10/36/10 17/37/10 18/38/10
f 15/39/11 18/40/11 17/37/11 16/41/11
f 21/17/12 20/20/12 19/22/12 22/25/12
f 19/22/13 20/42/13 15/43/13 16/44/13 9/45/13 12/23/13
f 25/46/14 14/47/14 11/48/14 24/49/14
f 14/47/4 25/46/4 26/50/4
f 11/48/2 23/51/2 24/49/2
f 23/51/15 11/48/15 14/47/15 26/50/15
