# Blender 4.4.3
# www.blender.org
mtllib row2.mtl
o row2
v 27.644375 -1.000000 21.574968
v 27.644375 -1.000000 -21.574968
v 28.244331 -1.000000 21.574968
v 28.244331 -1.000000 -21.574968
v 27.386484 7.845410 20.464983
v 27.266151 7.725078 20.464983
v 27.266151 7.725078 -20.464983
v 27.386484 7.845410 -20.464983
v 27.835241 7.725078 20.464983
v 27.714909 7.845410 20.464983
v 27.714909 7.845410 -20.464983
v 27.835241 7.725078 -20.464983
v 27.644375 -1.000000 0.000000
v 27.266151 7.725078 0.000000
v 27.455263 3.362539 21.019976
v 27.455263 3.362539 -21.019976
vn -0.0000 1.0000 -0.0000
vn 0.9989 0.0468 -0.0000
vn -0.0000 -1.0000 -0.0000
vn -0.0000 0.1249 -0.9922
vn -0.7071 0.7071 -0.0000
vn 0.7071 0.7071 -0.0000
vn -0.0000 0.1249 0.9922
vn -0.9991 -0.0433 -0.0000
vt 0.845292 0.312500
vt 0.932635 0.312500
vt 0.932635 0.463847
vt 0.845292 0.463847
vt 0.661943 0.312500
vt 0.811231 0.312500
vt 0.811231 0.463847
vt 0.661943 0.463847
vt 0.510597 0.312500
vt 0.510597 0.463847
vt 0.510597 0.388173
vt 0.661943 0.161153
vt 0.736587 0.161153
vt 0.811231 0.161153
vt 0.813290 0.193155
vt 0.813290 0.280498
vt 0.811231 0.312500
vt 0.813290 0.009806
vt 0.813290 0.161153
vt 0.811231 0.161153
vt 0.811231 0.085480
vt 0.811231 0.009806
vt 0.811231 0.463847
vt 0.813290 0.495849
vt 0.813290 0.583192
vt 0.811231 0.615194
vt 0.736587 0.615194
vt 0.661943 0.615194
vt 0.480090 0.907898
vt 0.132321 0.907898
vt 0.122890 0.820312
vt 0.113459 0.732727
vt 0.480090 0.732727
vt 0.846721 0.732727
vt 0.837290 0.820312
vt 0.827859 0.907898
s 0
usemtl wood3
f 11/1/1 8/2/1 5/3/1 10/4/1
f 4/5/2 12/6/2 9/7/2 3/8/2
f 2/9/3 4/5/3 3/8/3 1/10/3 13/11/3
f 2/12/4 16/13/4 7/14/4 8/15/4 11/16/4 12/17/4 4/5/4
f 5/18/5 8/19/5 7/20/5 14/21/5 6/22/5
f 11/1/6 10/4/6 9/7/6 12/6/6
f 3/8/7 9/23/7 10/24/7 5/25/7 6/26/7 15/27/7 1/28/7
f 14/29/8 7/30/8 16/31/8 2/32/8 13/33/8 1/34/8 15/35/8 6/36/8
