# Blender 4.4.3
# www.blender.org
mtllib standplayer.mtl
o standplayer
v -2.427814 3.944772 -18.774183
v -2.753651 1.023367 -18.774183
v -2.427814 3.944772 18.774183
v -2.753651 1.023367 18.774183
v -2.412767 4.779097 18.424265
v 0.515246 1.023367 18.044209
v -2.412767 4.779097 -18.424265
v 0.515246 4.227859 18.044209
v -2.361323 5.061098 16.988993
v 0.515246 1.023367 -18.044209
v -2.361323 5.061098 -16.988993
v 0.515246 4.227859 -18.044209
v -2.299445 5.205097 10.103796
v -2.299445 5.205097 -10.103796
v 1.291108 3.950673 -18.053965
v 0.762562 4.075167 -18.610382
v 1.297083 1.626193 -18.662893
v 0.955135 1.023367 -18.774183
v 1.291108 3.950673 18.053965
v 0.762562 4.075167 18.610382
v 1.297083 1.626193 18.662893
v 0.955135 1.023367 18.774183
v 1.261536 4.770345 17.681309
v 0.749110 4.778185 18.194439
v 1.261536 4.770345 -17.681309
v 0.749110 4.778185 -18.194439
v 1.188533 5.040564 16.506655
v 0.687711 5.064696 16.913042
v 1.188533 5.040564 -16.506655
v 0.687711 5.064696 -16.913042
v 1.108911 5.180214 9.885377
v 0.611836 5.207086 11.146672
v 1.108911 5.180214 -9.885377
v 0.611836 5.207086 -11.146672
v -2.753651 1.023367 18.044209
v -2.747316 1.080162 -18.044209
v -2.753651 1.023367 -18.044209
v -2.434148 3.887977 18.044209
v -2.411949 4.227859 18.044209
v -2.745643 1.105782 -18.044209
v -2.442285 4.227859 9.608792
v -2.462484 4.227859 -18.044209
v 0.755836 4.426676 18.402411
v 0.858849 2.549267 18.692284
v 0.755836 4.426676 -18.402411
v 0.858849 2.549267 -18.692284
v 0.718410 4.921441 17.553740
v 0.649774 5.135891 -14.029857
v 0.718410 4.921441 -17.553740
v 0.649774 5.135891 14.029857
v 0.611836 5.207086 0.000000
v 1.026835 4.012920 -18.332174
v 1.294096 2.788433 -18.358429
v 1.126109 1.324780 -18.718538
v 1.026835 4.012920 18.332174
v 1.126109 1.324780 18.718538
v 1.294096 2.788433 18.358429
v 1.297083 1.626193 0.000000
v 1.005323 4.774265 -17.937872
v 1.276322 4.360509 -17.867636
v 1.005323 4.774265 17.937872
v 1.276322 4.360509 17.867636
v 1.225035 4.905455 17.093983
v 0.938122 5.052630 16.709848
v 0.938122 5.052630 -16.709848
v 1.225035 4.905455 -17.093983
v 0.860374 5.193650 -10.516025
v 0.860374 5.193650 10.516025
v 1.108911 5.180214 0.000000
v 1.148722 5.110389 13.196016
v 1.148722 5.110389 -13.196016
v 1.239820 4.495619 17.280310
v 0.899248 5.123140 -13.612937
v 0.899248 5.123140 13.612937
v 0.860374 5.193650 0.000000
v 0.971722 4.913447 -17.323860
v 0.971722 4.913447 17.323860
v 1.016079 4.393593 18.135023
v 1.016079 4.393593 -18.135023
v 1.076472 2.668850 18.525356
v 1.076472 2.668850 -18.525356
vn 0.0463 0.4454 0.8941
vn 0.0232 0.0269 0.9994
vn 0.0463 0.4454 -0.8941
vn 0.0232 0.0269 -0.9994
vn -0.0000 -1.0000 -0.0000
vn 0.0097 0.9788 0.2048
vn -0.0046 0.9997 -0.0226
vn 0.0097 0.9788 -0.2048
vn -0.0046 0.9997 0.0226
vn -0.0007 1.0000 -0.0000
vn -0.9912 0.1324 -0.0026
vn 0.4038 0.1076 -0.9085
vn 0.3240 0.1908 0.9266
vn 0.8698 -0.4934 -0.0000
vn 0.6824 0.3368 -0.6488
vn 0.7093 0.3261 0.6249
vn 0.2135 0.9554 0.2041
vn 0.2169 0.9547 -0.2038
vn 0.0540 0.9985 -0.0000
vn 0.0992 0.9948 0.0223
vn 0.0775 0.9967 -0.0226
vn 0.9989 0.0461 0.0002
vn 0.9982 0.0087 -0.0600
vn -0.0000 -0.0000 1.0000
vn -1.0000 -0.0000 -0.0000
vn -0.0000 -0.0000 -1.0000
vn 0.0992 0.9948 -0.0223
vn 0.0957 0.9952 -0.0206
vn 0.0754 0.9969 -0.0209
vn 0.0775 0.9967 0.0226
vn 0.0754 0.9969 0.0209
vn 0.0957 0.9952 0.0206
vn 0.2135 0.9554 -0.2041
vn 0.2147 0.9548 -0.2055
vn 0.2181 0.9541 -0.2051
vn 0.2169 0.9547 0.2038
vn 0.2181 0.9541 0.2051
vn 0.2147 0.9548 0.2055
vn 0.6824 0.3368 0.6488
vn 0.6747 0.3696 0.6389
vn 0.7038 0.3567 0.6143
vn 0.7093 0.3261 -0.6249
vn 0.7038 0.3567 -0.6143
vn 0.6747 0.3696 -0.6389
vn 0.6595 0.1597 0.7345
vn 0.6681 0.1046 0.7367
vn 0.4038 0.1076 0.9085
vn 0.6681 0.1046 -0.7367
vn 0.6595 0.1597 -0.7345
vn 0.3240 0.1908 -0.9266
vt 0.278254 0.388574
vt 0.266615 0.672559
vt 0.235337 0.671894
vt 0.204059 0.671230
vt 0.204074 0.389732
vt 0.537489 0.690563
vt 0.402052 0.681561
vt 0.537489 0.360423
vt 0.448976 0.312136
vt 0.437338 0.028151
vt 0.511518 0.029309
vt 0.511532 0.310807
vt 0.480254 0.311472
vt 0.178103 0.000000
vt 0.313540 0.321138
vt 0.178103 0.330140
vt 0.712182 0.360423
vt 0.715645 0.360423
vt 0.715645 0.690795
vt 0.537489 0.690795
vt 0.537489 0.360423
vt 0.540952 0.360423
vt 0.540952 0.651610
vt 0.712182 0.651610
vt 0.191081 0.668569
vt 0.178103 0.665907
vt 0.178454 0.394483
vt 0.000360 0.645613
vt 0.000000 0.374515
vt 0.032668 0.379250
vt 0.027720 0.638108
vt 0.014040 0.641860
vt 0.537138 0.034060
vt 0.537489 0.305485
vt 0.524510 0.308146
vt 0.161216 0.374515
vt 0.160856 0.645613
vt 0.147176 0.641860
vt 0.133496 0.638108
vt 0.128548 0.379250
vt 0.080608 0.638108
vt 0.003463 0.374511
vt 0.000000 0.374515
vt 0.000000 0.112929
vt 0.001490 0.038682
vt 0.008342 0.013306
vt 0.041100 0.000105
vt 0.136950 0.000000
vt 0.169509 0.013129
vt 0.176273 0.038490
vt 0.178103 0.112734
vt 0.178103 0.374320
vt 0.174640 0.374323
vt 0.174640 0.369238
vt 0.174638 0.366951
vt 0.174496 0.087781
vt 0.043374 0.087806
vt 0.003428 0.087670
vt 0.003462 0.118011
vt 0.567601 0.104875
vt 0.448253 0.109652
vt 0.421484 0.094511
vt 0.556920 0.085508
vt 0.823876 0.234319
vt 0.943224 0.239095
vt 0.916454 0.254237
vt 0.813195 0.253685
vt 0.869942 0.048538
vt 0.781131 0.079221
vt 0.781392 0.048538
vt 0.720811 0.099064
vt 0.754672 0.098031
vt 0.754431 0.120884
vt 0.717986 0.122287
vt 0.670666 0.228508
vt 0.704528 0.229542
vt 0.709936 0.253134
vt 0.673491 0.251731
vt 0.624199 0.224551
vt 0.611594 0.221628
vt 0.610608 0.199298
vt 0.623586 0.201960
vt 0.767277 0.095108
vt 0.754913 0.075177
vt 0.767891 0.072516
vt 0.806100 0.159566
vt 0.855995 0.159566
vt 0.853003 0.181737
vt 0.806100 0.181737
vt 0.870689 0.163398
vt 0.858988 0.137394
vt 0.872668 0.141147
vt 0.741510 0.163398
vt 0.726816 0.167230
vt 0.725852 0.144899
vt 0.739532 0.141147
vt 0.634545 0.061270
vt 0.744635 0.061270
vt 0.854726 0.061270
vt 0.891585 0.071389
vt 0.928444 0.081508
vt 0.937016 0.181925
vt 0.945589 0.282341
vt 0.948904 0.505302
vt 0.952219 0.728262
vt 0.744376 0.728262
vt 0.536533 0.728262
vt 0.540000 0.505302
vt 0.543466 0.282342
vt 0.545570 0.204855
vt 0.547674 0.127369
vt 0.554229 0.104438
vt 0.560784 0.081508
vt 0.597664 0.071389
vt 0.404597 0.138885
vt 0.406790 0.150912
vt 0.404597 0.187166
vt 0.992687 0.000689
vt 0.994960 0.000547
vt 1.000000 -0.000000
vt 1.000000 0.290983
vt 0.715645 0.290047
vt 0.715645 0.024983
vt 0.715645 0.345534
vt 0.886823 0.345813
vt 0.886823 0.630635
vt 0.715645 0.630356
vt 0.821843 0.980842
vt 0.537489 0.981778
vt 0.537489 0.690795
vt 0.791684 0.718399
vt 0.821843 0.720276
vt 0.171229 0.690274
vt 0.171229 0.955525
vt 0.000000 0.955525
vt 0.000000 0.694775
vt 0.040024 0.692073
vt 0.406790 0.199193
vt 0.404597 0.235446
vt 0.161216 0.422796
vt 0.163409 0.386542
vt 0.163409 0.434823
vt 0.165602 0.398569
vt 0.756204 0.159566
vt 0.753212 0.137394
vt 0.759196 0.181737
vt 0.743488 0.185649
vt 0.727780 0.189560
vt 0.885383 0.167230
vt 0.886347 0.144899
vt 0.884419 0.189560
vt 0.868711 0.185649
vt 0.806100 0.137394
vt 0.779883 0.092185
vt 0.780869 0.069855
vt 0.778897 0.114515
vt 0.766664 0.117700
vt 0.636805 0.227474
vt 0.636564 0.204621
vt 0.637046 0.250328
vt 0.624813 0.247143
vt 0.612580 0.243958
vt 0.667842 0.205285
vt 0.699120 0.205950
vt 0.686949 0.100098
vt 0.681541 0.123690
vt 0.692357 0.076506
vt 0.723635 0.075842
vt 0.715378 0.314851
vt 0.537750 0.314851
vt 0.626561 0.284168
vt 0.958759 0.079221
vt 0.958492 0.048538
vt 0.715645 0.345534
vt 0.537489 0.345534
vt 0.272023 0.696151
vt 0.391371 0.700928
vt 0.380690 0.720294
vt 0.277431 0.719743
vt 0.834556 0.214952
vt 0.969993 0.223954
vt 0.578282 0.124241
vt 0.475022 0.124793
s 0
usemtl color
f 3/1/1 20/2/1 43/3/1 24/4/1 5/5/1
f 22/6/2 44/7/2 20/2/2 3/1/2 4/8/2
f 16/9/3 1/10/3 7/11/3 26/12/3 45/13/3
f 2/14/4 1/10/4 16/9/4 46/15/4 18/16/4
f 37/17/5 2/18/5 18/19/5 22/20/5 4/21/5 35/22/5 6/23/5 10/24/5
f 5/5/6 24/4/6 47/25/6 28/26/6 9/27/6
f 30/28/7 11/29/7 14/30/7 34/31/7 48/32/7
f 26/12/8 7/11/8 11/33/8 30/34/8 49/35/8
f 9/36/9 28/37/9 50/38/9 32/39/9 13/40/9
f 34/31/10 14/30/10 13/40/10 32/39/10 51/41/10
f 35/42/11 4/43/11 3/44/11 5/45/11 9/46/11 13/47/11 14/48/11 11/49/11 7/50/11 1/51/11 2/52/11 37/53/11 36/54/11 40/55/11 42/56/11 41/57/11 39/58/11 38/59/11
f 81/60/12 54/61/12 18/62/12 46/63/12
f 80/64/13 56/65/13 21/66/13 57/67/13
f 58/68/14 54/69/14 17/70/14
f 79/71/15 59/72/15 25/73/15 60/74/15
f 78/75/16 55/76/16 19/77/16 62/78/16
f 77/79/17 64/80/17 28/81/17 47/82/17
f 76/83/18 59/72/18 26/84/18 49/85/18
f 75/86/19 68/87/19 31/88/19 69/89/19
f 74/90/20 68/87/20 32/91/20 50/92/20
f 73/93/21 65/94/21 30/95/21 48/96/21
f 33/97/22 69/98/22 31/99/22 70/100/22 27/101/22 72/102/22 19/103/22 57/104/22 21/105/22 58/106/22 17/107/22 53/108/22 15/109/22 60/110/22 25/111/22 66/112/22 29/113/22 71/114/22
f 27/115/23 63/116/23 72/117/23
f 40/118/24 36/119/24 37/120/24 10/121/24 12/122/24 42/123/24
f 8/124/25 12/125/25 10/126/25 6/127/25
f 8/128/26 6/129/26 35/130/26 38/131/26 39/132/26
f 42/133/5 12/134/5 8/135/5 39/136/5 41/137/5
f 72/117/23 62/138/23 19/139/23
f 72/140/23 63/141/23 62/142/23
f 63/141/23 23/143/23 62/142/23
f 67/144/27 73/93/27 48/96/27 34/145/27
f 33/146/28 71/147/28 73/93/28 67/144/28
f 71/147/29 29/148/29 65/94/29 73/93/29
f 64/149/30 74/90/30 50/92/30 28/150/30
f 27/151/31 70/152/31 74/90/31 64/149/31
f 70/152/32 31/88/32 68/87/32 74/90/32
f 67/144/19 75/86/19 69/89/19 33/146/19
f 34/145/19 51/153/19 75/86/19 67/144/19
f 51/153/19 32/91/19 68/87/19 75/86/19
f 65/154/33 76/83/33 49/85/33 30/155/33
f 29/156/34 66/157/34 76/83/34 65/154/34
f 66/157/35 25/73/35 59/72/35 76/83/35
f 61/158/36 77/79/36 47/82/36 24/159/36
f 23/160/37 63/161/37 77/79/37 61/158/37
f 63/161/38 27/162/38 64/80/38 77/79/38
f 61/158/39 78/75/39 62/78/39 23/160/39
f 24/159/40 43/163/40 78/75/40 61/158/40
f 43/163/41 20/164/41 55/76/41 78/75/41
f 52/165/42 79/71/42 60/74/42 15/166/42
f 16/167/43 45/168/43 79/71/43 52/165/43
f 45/168/44 26/84/44 59/72/44 79/71/44
f 56/169/14 54/170/14 58/171/14
f 56/172/14 58/68/14 21/173/14
f 22/174/14 18/175/14 54/170/14 56/169/14
f 55/176/45 80/177/45 57/178/45 19/179/45
f 20/164/46 44/180/46 80/64/46 55/76/46
f 44/180/47 22/181/47 56/65/47 80/64/47
f 52/165/48 81/60/48 46/63/48 16/167/48
f 15/166/49 53/182/49 81/60/49 52/165/49
f 53/182/50 17/183/50 54/61/50 81/60/50
